<svg width="24" height="24" viewBox="0 0 24 24" fill="none" xmlns="http://www.w3.org/2000/svg">
<g clip-path="url(#clip0_9116_701)">
<path d="M24 12L21.8732 15.2628L21.3598 19.5103C19.9971 21.2064 18.1831 22.5242 16.0999 23.2813L12 22.5807L7.88507 23.2758C5.80811 22.5178 3.99939 21.2021 2.64001 19.5101L2.12622 15.5905L0 12C0 9.466 0.785522 7.1153 2.12622 5.17841L5.68652 3.78717L8.26575 0.592529C9.44092 0.208008 10.6963 0 12 0C13.3037 0 14.5589 0.208008 15.7343 0.592346L18.2725 3.77838L21.873 5.17749C23.2143 7.11456 24 9.46545 24 12Z" fill="#6B7D8E"/>
<path d="M5.81744 16.0173C3.44385 12.2966 4.15137 7.39911 5.133 4.00342L2.12714 5.17804C0.786072 7.1153 0 9.466 0 12L2.12622 15.5905L2.63983 19.5084C3.99939 21.201 5.80792 22.5176 7.88525 23.2758L12 22.5807L12.6546 22.6926C10.836 21.1602 8.45526 20.1522 5.81744 16.0173Z" fill="#6B7D8E"/>
<path d="M9.23492 16.0173L7.01349 17.9266L6.14941 20.2628L7.88507 23.2758C9.16846 23.7444 10.5544 24 12 24C13.4401 24 14.8206 23.7464 16.0997 23.2813L17.8506 20.2628L16.9457 17.8709L14.7645 16.0173H9.23492Z" fill="#B0F0EF"/>
<path d="M2.5351 9.13568L0 12C0 14.8429 0.987854 17.4542 2.6402 19.5103L6.14941 20.2628L9.23492 16.0173L7.52618 10.7584L5.19232 9.85474L2.5351 9.13568Z" fill="#76E7E7"/>
<path d="M21.4645 9.13568L21.8732 5.17749C20.397 3.04486 18.2494 1.41504 15.7343 0.592346L11.9998 2.25989L11.4203 4.77704L11.9998 7.50806L16.4734 10.7584L19.2902 10.5308L21.4645 9.13568Z" fill="#2EDDDA"/>
<path d="M24 12L21.4645 9.13568L16.4734 10.7584L14.7647 16.0173L17.8506 20.2628L21.3598 19.5104C23.012 17.4542 24 14.8429 24 12Z" fill="#76E7E7"/>
<path d="M2.12622 5.17841L2.5351 9.13568L7.52618 10.7584L11.9996 7.50806V2.25989L8.26556 0.592346C5.75043 1.41522 3.60223 3.04559 2.12622 5.17841Z" fill="#B0F0EF"/>
<path d="M7.53699 18.3536L6.14941 20.2628L7.88507 23.2758C9.16846 23.7444 10.5544 24 12 24C12.614 24 13.2173 23.9539 13.8063 23.8651C12.252 21.8937 10.0583 21.2922 7.53699 18.3536Z" fill="#76E7E7"/>
<path d="M0 12C0 14.8429 0.987854 17.4542 2.6402 19.5103L6.14941 20.2626L7.53699 18.3536C6.97852 17.7028 6.40466 16.9378 5.81744 16.0173C4.5921 14.0966 4.18799 11.8623 4.21857 9.68298L2.5351 9.13568L0 12Z" fill="#2EDDDA"/>
<path d="M2.12622 5.17841L2.5351 9.13568L4.21857 9.68298C4.26306 6.50958 5.23041 3.45044 5.92712 1.64758C4.41833 2.53491 3.1192 3.74341 2.12622 5.17841Z" fill="#76E7E7"/>
</g>
<defs>
<clipPath id="clip0_9116_701">
<rect width="24" height="24" fill="white"/>
</clipPath>
</defs>
</svg>
