<svg width="46" height="46" viewBox="0 0 46 46" fill="none" xmlns="http://www.w3.org/2000/svg">
<path d="M45.3223 17.4341L39.4772 20.7511C38.7218 21.2063 37.6588 20.7317 37.4942 19.865C36.8525 16.8724 35.2327 14.0687 32.9639 12.018C32.3077 11.4539 32.407 10.3208 33.1527 9.88012L38.8162 6.31375C36.16 3.79575 32.9058 1.90241 29.2907 0.873413V7.59697C29.3053 8.32089 28.6636 8.9625 27.9421 8.94555C27.8041 8.94555 27.666 8.92376 27.5304 8.8826C24.62 7.94077 21.3803 7.94077 18.4699 8.8826C17.6297 9.17314 16.6902 8.48795 16.7096 7.59697V0.873413C12.9807 1.93388 9.63448 3.91681 6.93229 6.55587L12.7919 9.8438C13.5836 10.2675 13.7144 11.4297 13.0364 12.018C10.7677 14.0687 9.14779 16.8748 8.50614 19.865C8.34391 20.7269 7.28822 21.2063 6.53277 20.756L0.665913 17.4801C-0.200919 20.9133 -0.222711 24.8332 0.607801 28.2809L6.57393 25.223C7.32938 24.8138 8.34634 25.2932 8.50614 26.1382C9.14779 29.1283 10.7677 31.9344 13.0364 33.9852C13.6999 34.5541 13.5909 35.7018 12.8306 36.1352L7.10178 39.6119C9.77491 42.1687 13.0582 44.0887 16.7096 45.1297V38.4038C16.6926 37.5128 17.6273 36.83 18.4699 37.1206C21.3803 38.06 24.62 38.06 27.5304 37.1206C28.3731 36.83 29.3101 37.5128 29.2907 38.4038V45.1297C32.8743 44.108 36.1068 42.2389 38.7508 39.7524L33.1358 36.1134C32.4046 35.6654 32.3126 34.5444 32.9639 33.9852C35.2327 31.9344 36.8525 29.1283 37.4942 26.1382C37.6637 25.2617 38.729 24.792 39.4893 25.2593L45.3029 28.6441C46.2255 25.0826 46.2327 21.0005 45.3223 17.4341ZM23.0002 35.4015C16.1624 35.4015 10.6006 29.8377 10.6006 23.0004C11.2229 6.57524 34.7799 6.57766 35.3997 23.0004C35.3997 29.8377 29.838 35.4015 23.0002 35.4015Z" fill="#2E9344"/>
<path d="M22.9996 13.2964C17.6485 13.2964 13.2949 17.6496 13.2949 23.0004C13.784 35.8567 32.2199 35.8543 32.7042 23.0004C32.7042 17.6496 28.3507 13.2964 22.9996 13.2964Z" fill="#2E9344"/>
<path fill-rule="evenodd" clip-rule="evenodd" d="M26.5963 0.277828V5.84891C24.2452 5.35742 21.7561 5.35742 19.4074 5.84891V0.277828C21.7392 -0.0926093 24.2646 -0.0926093 26.5963 0.277828ZM6.32193 28.3802C6.70208 29.5521 7.20329 30.6852 7.82557 31.7602C8.43817 32.8231 9.1573 33.8109 9.96844 34.7164L5.22992 37.5928C3.60037 35.6122 2.29528 33.3557 1.39697 30.9031L6.32193 28.3802ZM35.9967 34.755C36.8224 33.8398 37.5537 32.8375 38.1735 31.7601C38.7813 30.7117 39.2728 29.6101 39.6481 28.4697L44.4641 31.2734C43.5464 33.6486 42.2413 35.8373 40.6311 37.7573L35.9967 34.755ZM19.4074 40.1517V45.7204C21.7392 46.0932 24.2646 46.0932 26.5963 45.7204V40.1517C24.2452 40.6432 21.7561 40.6432 19.4074 40.1517ZM7.82491 14.2383C8.42782 13.1948 9.13242 12.2215 9.92904 11.328L5.07187 8.60182C3.57065 10.4685 2.35273 12.5725 1.48832 14.8508L6.34064 17.5601C6.71837 16.4101 7.21474 15.2987 7.82491 14.2383ZM39.6558 17.5505C39.2805 16.4029 38.7841 15.294 38.174 14.2408C37.5565 13.1706 36.8325 12.1731 36.0117 11.2627L40.6946 8.31619C42.2926 10.241 43.5856 12.4297 44.496 14.8049L39.6558 17.5505Z" fill="#2E9344"/>
</svg>
