<svg width="46" height="46" viewBox="0 0 46 46" fill="none" xmlns="http://www.w3.org/2000/svg">
<path d="M39.2106 38.1249H6.78294C5.30929 38.1249 4.11475 39.44 4.11475 41.0625C4.11475 42.6849 5.30929 44 6.78294 44H39.2106C40.6842 44 41.8788 42.6849 41.8788 41.0625C41.8788 39.44 40.6842 38.1249 39.2106 38.1249Z" fill="#2E9344"/>
<path d="M22.5675 8.55665C22.5906 8.56143 22.6123 8.56461 22.6354 8.5678C22.754 8.58691 22.874 8.59964 22.997 8.59964C23.1199 8.59964 23.2399 8.58691 23.3585 8.5678C23.3817 8.56461 23.4048 8.56143 23.4265 8.55665C23.5451 8.53436 23.6622 8.50411 23.775 8.46431C24.7989 8.10289 25.5393 7.04728 25.5393 5.79903C25.5393 4.25303 24.4012 3 22.997 3C21.5927 3 20.4546 4.25303 20.4546 5.79903C20.4546 7.18262 21.3686 8.33057 22.5675 8.55506V8.55665Z" fill="#2E9344"/>
<path d="M2.59878 19.2034C2.68989 19.2018 2.77811 19.1939 2.86632 19.1811C2.86922 19.1811 2.87066 19.1811 2.87355 19.1811C2.96032 19.1684 3.0442 19.1509 3.12808 19.1302C3.12953 19.1302 3.13242 19.1302 3.13387 19.1302C3.21774 19.1079 3.30018 19.0808 3.38116 19.0506C4.37324 18.6685 5.08476 17.632 5.08476 16.4108C5.08476 14.8648 3.94662 13.6118 2.54238 13.6118C1.13814 13.6118 0 14.86 0 16.406C0 17.952 1.13814 19.205 2.54238 19.205C2.56118 19.205 2.57853 19.2018 2.59733 19.2018L2.59878 19.2034Z" fill="#2E9344"/>
<path d="M43.4574 13.6067C42.0532 13.6067 40.915 14.8598 40.915 16.4058C40.915 17.5266 41.5152 18.4915 42.38 18.9389C42.4567 18.9787 42.5362 19.0153 42.6186 19.0456C42.6186 19.0456 42.6201 19.0456 42.6215 19.0456C42.7011 19.0758 42.7835 19.1029 42.8674 19.1252C42.8703 19.1252 42.8717 19.1252 42.8746 19.1268C42.9585 19.1491 43.0424 19.165 43.1277 19.1777C43.1306 19.1777 43.132 19.1777 43.1349 19.1777C43.2231 19.1904 43.3128 19.1968 43.4025 19.2C43.4213 19.2 43.4386 19.2032 43.4574 19.2032C44.8617 19.2032 45.9998 17.9502 45.9998 16.4042C45.9998 14.8582 44.8617 13.6051 43.4574 13.6051V13.6067Z" fill="#2E9344"/>
<path d="M34.6636 25.6546C29.9028 25.6546 25.8101 19.0933 23.9981 9.69315C23.6799 9.79186 23.3444 9.84918 22.9973 9.84918C22.6502 9.84918 22.3147 9.79186 21.9966 9.69315C20.1831 19.0949 16.0918 25.6546 11.331 25.6546C8.63679 25.6546 6.15949 23.5466 4.18546 20.0215C3.72557 20.2763 3.21074 20.4275 2.66553 20.4482C3.056 26.2915 4.36912 31.6825 6.36196 36.225H39.6327C41.6255 31.6825 42.9387 26.2931 43.3291 20.4482C42.7839 20.4275 42.2691 20.2779 41.8078 20.0215C39.8337 23.5482 37.3564 25.6546 34.6622 25.6546H34.6636Z" fill="#2E9344"/>
<path d="M2.59878 19.2034C2.68989 19.2018 2.77811 19.1939 2.86632 19.1811C2.86922 19.1811 2.87066 19.1811 2.87355 19.1811C2.96032 19.1684 3.0442 19.1509 3.12808 19.1302C3.12953 19.1302 3.13242 19.1302 3.13387 19.1302C3.21774 19.1079 3.30018 19.0808 3.38116 19.0506C4.37324 18.6685 5.08476 17.632 5.08476 16.4108C5.08476 14.8648 3.94662 13.6118 2.54238 13.6118C1.13814 13.6118 0 14.86 0 16.406C0 17.952 1.13814 19.205 2.54238 19.205C2.56118 19.205 2.57853 19.2018 2.59733 19.2018L2.59878 19.2034Z" fill="#2E9344"/>
<path d="M43.4574 13.6067C42.0532 13.6067 40.915 14.8598 40.915 16.4058C40.915 17.5266 41.5152 18.4915 42.38 18.9389C42.4567 18.9787 42.5362 19.0153 42.6186 19.0456C42.6186 19.0456 42.6201 19.0456 42.6215 19.0456C42.7011 19.0758 42.7835 19.1029 42.8674 19.1252C42.8703 19.1252 42.8717 19.1252 42.8746 19.1268C42.9585 19.1491 43.0424 19.165 43.1277 19.1777C43.1306 19.1777 43.132 19.1777 43.1349 19.1777C43.2231 19.1904 43.3128 19.1968 43.4025 19.2C43.4213 19.2 43.4386 19.2032 43.4574 19.2032C44.8617 19.2032 45.9998 17.9502 45.9998 16.4042C45.9998 14.8582 44.8617 13.6051 43.4574 13.6051V13.6067Z" fill="#2E9344"/>
<path d="M39.6368 36.2233C41.6297 31.6809 42.9428 26.2914 43.3333 20.4465C42.788 20.4258 42.2732 20.2762 41.8119 20.0198C39.8378 23.5465 37.3605 25.6529 34.6663 25.6529C29.9055 25.6529 25.8128 19.0916 24.0008 9.69147C23.6826 9.79018 23.3471 9.8475 23 9.8475V36.2217H39.6354L39.6368 36.2233Z" fill="#2E9344"/>
<path d="M23.3615 8.56924C23.3847 8.56605 23.4078 8.56287 23.4295 8.55809C23.5481 8.5358 23.6652 8.50555 23.778 8.46574C24.8019 8.10432 25.5424 7.04872 25.5424 5.80046C25.5424 4.25447 24.4042 3.00143 23 3.00143V8.59949C23.1229 8.59949 23.243 8.58675 23.3615 8.56764V8.56924Z" fill="#2E9344"/>
<path d="M32.0965 17.1944C32.1125 17.1976 32.1284 17.1992 32.1428 17.2023C32.2238 17.2151 32.3062 17.2246 32.3916 17.2246C32.4769 17.2246 32.5579 17.2151 32.6389 17.2023C32.6548 17.1992 32.6707 17.1976 32.6866 17.1944C32.7676 17.1785 32.8486 17.1594 32.9252 17.1323C33.6266 16.8839 34.1342 16.1611 34.1342 15.3061C34.1342 14.2457 33.3533 13.3875 32.3916 13.3875C31.4299 13.3875 30.6489 14.2473 30.6489 15.3061C30.6489 16.255 31.2751 17.0399 32.0965 17.196V17.1944Z" fill="#2E9344"/>
<path d="M13.3129 17.1944C13.3288 17.1976 13.3447 17.1992 13.3591 17.2023C13.4401 17.2151 13.5226 17.2246 13.6079 17.2246C13.6932 17.2246 13.7742 17.2151 13.8552 17.2023C13.8711 17.1992 13.887 17.1976 13.9029 17.1944C13.9839 17.1785 14.0634 17.1594 14.1415 17.1323C14.8429 16.8839 15.3505 16.1611 15.3505 15.3061C15.3505 14.2457 14.571 13.3875 13.6079 13.3875C12.6447 13.3875 11.8652 14.2473 11.8652 15.3061C11.8652 16.255 12.4914 17.0399 13.3129 17.196V17.1944Z" fill="#2E9344"/>
<path d="M15.4591 22.2702C14.9905 20.9742 14.5943 19.5333 14.2935 17.973C14.0751 18.0414 13.8452 18.0796 13.608 18.0796C13.3708 18.0796 13.1409 18.0414 12.9225 17.973C12.4438 20.4551 11.7323 22.6476 10.853 24.4053C11.0193 24.4244 11.1799 24.4372 11.3317 24.4372C12.7562 24.4372 14.1619 23.6665 15.4591 22.2718V22.2702Z" fill="#2E9344"/>
<path d="M35.1471 24.4069C34.2678 22.6476 33.5563 20.4551 33.0776 17.973C32.8592 18.0414 32.6293 18.0796 32.3921 18.0796C32.155 18.0796 31.925 18.0414 31.7066 17.973C31.4058 19.5333 31.0096 20.9742 30.541 22.2718C31.8382 23.6665 33.2439 24.4372 34.6684 24.4372C34.8304 24.4372 34.9909 24.426 35.1485 24.4085L35.1471 24.4069Z" fill="#2E9344"/>
</svg>
