<svg width="47" height="46" viewBox="0 0 47 46" fill="none" xmlns="http://www.w3.org/2000/svg">
<path d="M18.1139 13.2167L17.6771 16.6507C17.5858 17.1464 17.6507 17.6477 17.8656 18.1028C18.2561 18.9297 19.0617 19.4115 19.8988 19.4115C20.23 19.4115 20.5663 19.336 20.8834 19.1767L23.9458 17.6395L27.0923 19.1853C27.4887 19.3805 27.9315 19.4503 28.3727 19.3874C28.9695 19.3023 29.4983 18.9827 29.8619 18.4873C30.2255 17.9919 30.3802 17.3802 30.2975 16.7636L29.8256 13.281L32.1504 10.7523C32.4999 10.4073 32.7283 9.96538 32.8117 9.47241C32.9154 8.85986 32.7815 8.24237 32.4349 7.73359C32.0882 7.22481 31.5701 6.88574 30.9783 6.77919L27.6223 6.1661L25.9585 3.01C25.9585 3.00982 25.9586 3.01018 25.9585 3.01C25.7475 2.6102 25.4297 2.28515 25.0398 2.0706C24.5088 1.77861 23.8993 1.71725 23.3235 1.89793C22.7478 2.0786 22.2747 2.47975 21.9913 3.0277L20.389 6.12953L17.0178 6.77551C16.5606 6.84999 16.1426 7.06435 15.8078 7.39641C15.3737 7.82694 15.1283 8.40607 15.1166 9.02706C15.105 9.64806 15.3285 10.2365 15.7467 10.6848L18.1139 13.2167ZM17.0158 8.6915C17.1131 8.59492 17.2206 8.56114 17.2935 8.54982C17.3035 8.54829 17.3133 8.54658 17.3232 8.54469L21.1198 7.81715C21.3805 7.76719 21.6049 7.59757 21.7296 7.35625L23.529 3.87295C23.5931 3.74887 23.7004 3.65795 23.8309 3.61698C23.88 3.60153 23.9303 3.59389 23.9802 3.59389C24.0629 3.59389 24.1449 3.61483 24.2198 3.65606C24.3084 3.70476 24.3803 3.77825 24.428 3.86854L26.292 7.40432C26.4185 7.64456 26.6444 7.8122 26.9055 7.85991L30.6768 8.54883C30.8122 8.57317 30.9304 8.65053 31.0095 8.76661C31.0886 8.88268 31.1191 9.02356 31.0955 9.16344C31.0709 9.30836 30.9975 9.40449 30.9402 9.45957C30.9272 9.47205 30.9146 9.48499 30.9023 9.49829L28.2727 12.3586C28.0902 12.557 28.0054 12.8303 28.042 13.1011L28.5718 17.0109C28.5906 17.1508 28.5555 17.2899 28.4727 17.4026C28.39 17.5152 28.2698 17.5879 28.1341 17.6073C28.0318 17.6219 27.9309 17.6067 27.8424 17.5632L24.3165 15.8311C24.0771 15.7134 23.7989 15.7147 23.5605 15.8344L20.1208 17.561C19.8655 17.6894 19.5565 17.5794 19.4322 17.316C19.3688 17.1817 19.3746 17.0577 19.3906 16.9773C19.3949 16.9559 19.3984 16.9344 19.4012 16.9128L19.8961 13.0212C19.9306 12.7502 19.8435 12.4777 19.6595 12.2808L17.0019 9.43827C16.9071 9.33657 16.8563 9.20288 16.8589 9.06174C16.8615 8.92087 16.9172 8.78925 17.0158 8.6915Z" fill="#2E9344"/>
<path d="M17.0158 8.6915C17.1131 8.59492 17.2206 8.56114 17.2935 8.54982C17.3035 8.54829 17.3133 8.54658 17.3232 8.54469L21.1198 7.81715C21.3805 7.76719 21.6049 7.59757 21.7296 7.35625L23.529 3.87295C23.5931 3.74887 23.7004 3.65795 23.8309 3.61698C23.88 3.60153 23.9303 3.59389 23.9802 3.59389C24.0629 3.59389 24.1449 3.61483 24.2198 3.65606C24.3084 3.70476 24.3803 3.77825 24.428 3.86854L26.292 7.40432C26.4185 7.64456 26.6444 7.8122 26.9055 7.85991L30.6768 8.54883C30.8122 8.57317 30.9304 8.65053 31.0095 8.76661C31.0886 8.88268 31.1191 9.02356 31.0955 9.16344C31.0709 9.30836 30.9975 9.40449 30.9402 9.45957C30.9272 9.47205 30.9146 9.48499 30.9023 9.49829L28.2727 12.3586C28.0902 12.557 28.0054 12.8303 28.042 13.1011L28.5718 17.0109C28.5906 17.1508 28.5555 17.2899 28.4727 17.4026C28.39 17.5152 28.2698 17.5879 28.1341 17.6073C28.0318 17.6219 27.9309 17.6067 27.8424 17.5632L24.3165 15.8311C24.0771 15.7134 23.7989 15.7147 23.5605 15.8344L20.1208 17.561C19.8655 17.6894 19.5565 17.5794 19.4322 17.316C19.3688 17.1817 19.3746 17.0577 19.3906 16.9773C19.3949 16.9559 19.3984 16.9344 19.4012 16.9128L19.8961 13.0212C19.9306 12.7502 19.8435 12.4777 19.6595 12.2808L17.0019 9.43827C16.9071 9.33657 16.8563 9.20288 16.8589 9.06174C16.8615 8.92087 16.9172 8.78925 17.0158 8.6915Z" fill="#2E9344"/>
<path d="M10.3469 1.67664L13.7859 3.72418C13.9232 3.80594 14.0729 3.84475 14.2208 3.84475C14.5219 3.84475 14.8147 3.68357 14.976 3.39535C15.2167 2.96563 15.0739 2.41615 14.6572 2.16809L11.2181 0.120548C10.8015 -0.1276 10.2686 0.0196535 10.028 0.449376C9.7874 0.879099 9.93019 1.42858 10.3469 1.67664Z" fill="#2E9344"/>
<path d="M7.8331 12.4478C7.87484 12.4478 7.91709 12.4447 7.95969 12.4384L11.8893 11.8487C12.3654 11.7773 12.6953 11.3213 12.626 10.8303C12.5567 10.3393 12.1148 9.99921 11.6384 10.0706L7.70878 10.6602C7.23266 10.7316 6.90282 11.1877 6.97208 11.6787C7.03524 12.1258 7.40751 12.4478 7.8331 12.4478Z" fill="#2E9344"/>
<path d="M13.8165 17.9144L11.0086 20.8101C10.6684 21.1609 10.6684 21.7298 11.0086 22.0808C11.1787 22.2562 11.4017 22.3439 11.6246 22.3439C11.8476 22.3439 12.0706 22.2562 12.2407 22.0808L15.0486 19.1851C15.3888 18.8343 15.3888 18.2654 15.0486 17.9144C14.7084 17.5635 14.1567 17.5636 13.8165 17.9144Z" fill="#2E9344"/>
<path d="M33.7384 3.84477C33.8861 3.84477 34.036 3.80587 34.1732 3.7242L37.6122 1.67666C38.0289 1.4286 38.1717 0.879119 37.9311 0.449396C37.6905 0.0195833 37.1577 -0.127581 36.741 0.120568L33.302 2.16811C32.8853 2.41617 32.7425 2.96565 32.9831 3.39537C33.1444 3.68359 33.4373 3.84477 33.7384 3.84477Z" fill="#2E9344"/>
<path d="M35.3349 10.83C35.2656 11.321 35.5955 11.7771 36.0716 11.8485L40.0012 12.4382C40.0437 12.4445 40.086 12.4476 40.1278 12.4476C40.5534 12.4476 40.9257 12.1256 40.9888 11.6783C41.0581 11.1874 40.7282 10.7313 40.2521 10.6599L36.3225 10.0702C35.8467 9.99908 35.4041 10.339 35.3349 10.83Z" fill="#2E9344"/>
<path d="M32.908 17.9146C32.5678 18.2655 32.5678 18.8343 32.908 19.1853L35.7159 22.0809C35.8861 22.2564 36.109 22.3441 36.332 22.3441C36.5549 22.3441 36.778 22.2564 36.948 22.0809C37.2882 21.7301 37.2882 21.1612 36.948 20.8103L34.1401 17.9146C33.7999 17.5638 33.2483 17.5638 32.908 17.9146Z" fill="#2E9344"/>
<path fill-rule="evenodd" clip-rule="evenodd" d="M40.5322 29.8282H30.9489V25.3359C30.9489 23.8497 29.7764 22.6406 28.3352 22.6406H19.6231C18.182 22.6406 17.0095 23.8497 17.0095 25.3359V26.2344H7.42614C5.98498 26.2344 4.8125 27.4435 4.8125 28.9297V45.1016C4.8125 45.5978 5.20254 46 5.68371 46H42.2747C42.7558 46 43.1459 45.5978 43.1459 45.1016V32.5234C43.1459 31.0373 41.9734 29.8282 40.5322 29.8282ZM35.7507 33.4219C37.1874 33.4219 38.3563 34.631 38.3563 36.1172C38.3563 36.5245 38.2699 36.9174 38.1058 37.2741C38.5431 37.8284 38.7899 38.5278 38.7899 39.2619C38.7899 40.9958 37.4265 42.4064 35.7507 42.4064C35.0762 42.4064 34.4371 42.1823 33.9025 41.7581C33.5212 41.4555 33.4499 40.8914 33.7433 40.4982C34.0368 40.105 34.5837 40.0314 34.9651 40.3339C35.1923 40.5141 35.4639 40.6095 35.7507 40.6095C36.4658 40.6095 37.0475 40.0049 37.0475 39.2618C37.0475 38.8131 36.8333 38.3951 36.4746 38.1434C36.2589 37.9922 36.1204 37.7493 36.0969 37.4815C36.0734 37.2136 36.1674 36.9491 36.3533 36.7604C36.5212 36.5898 36.6139 36.3614 36.6139 36.1173C36.6139 35.6219 36.2266 35.2188 35.7507 35.2188C35.4993 35.2188 35.2608 35.3329 35.0963 35.5315C34.7838 35.9088 34.2339 35.9535 33.8679 35.6313C33.5021 35.309 33.4587 34.742 33.7712 34.3646C34.2672 33.7655 34.9887 33.4219 35.7507 33.4219ZM13.5258 37.016H11.4264C11.6183 36.834 11.8588 36.6392 12.1394 36.4159C13.1358 35.6231 14.3757 34.6364 14.3969 32.7779C14.4124 31.4129 13.5658 30.2342 12.3382 29.9113C11.1646 29.6028 10.0202 30.1536 9.42292 31.3148C9.19745 31.7532 9.35932 32.297 9.78439 32.5295C10.2095 32.762 10.7368 32.5951 10.9623 32.1568C11.259 31.5798 11.682 31.5933 11.9076 31.6525C12.2846 31.7517 12.6618 32.1316 12.6546 32.7569C12.6442 33.6789 12.0509 34.2169 11.0751 34.9933L11.075 34.9934C10.182 35.7039 9.16992 36.5093 9.16992 37.9144C9.16992 38.4106 9.55997 38.8128 10.0411 38.8128H13.5258C14.0069 38.8128 14.397 38.4106 14.397 37.9144C14.397 37.4182 14.0069 37.016 13.5258 37.016ZM24.8496 33.4218H24.9443C25.4255 33.4218 25.8155 33.824 25.8155 34.3202C25.8155 34.8164 25.4255 35.2187 24.9443 35.2187H23.0125C22.5313 35.2187 22.1413 34.8164 22.1413 34.3202C22.1413 33.824 22.5313 33.4218 23.0125 33.4218H23.1072V28.6012C22.7745 28.6382 22.4361 28.4752 22.258 28.1571C22.0174 27.7274 22.1602 27.1779 22.5769 26.9298L23.5428 26.3548C23.8124 26.1943 24.1445 26.1942 24.414 26.3548C24.6836 26.5152 24.8496 26.8118 24.8496 27.1328V33.4218Z" fill="#2E9344"/>
</svg>
