<svg width="42" height="42" viewBox="0 0 42 42" fill="none" xmlns="http://www.w3.org/2000/svg">
<path d="M39.3749 20.1677C39.3758 19.478 39.2403 18.795 38.9764 18.1579C38.7125 17.5208 38.3254 16.9421 37.8371 16.4551L24.7121 3.33009C23.7276 2.34557 22.3922 1.79248 20.9999 1.79248C19.6075 1.79248 18.2722 2.34557 17.2876 3.33009L4.16264 16.4551C3.17801 17.4396 2.62482 18.775 2.62476 20.1674C2.6247 21.5598 3.17777 22.8953 4.16232 23.8799C5.14687 24.8645 6.48223 25.4177 7.87465 25.4178C9.26707 25.4178 10.6025 24.8648 11.5871 23.8802L20.9999 14.4671L30.4126 23.8802C31.1469 24.6144 32.0824 25.1144 33.1008 25.317C34.1192 25.5195 35.1748 25.4155 36.1341 25.0181C37.0934 24.6208 37.9133 23.9478 38.4902 23.0844C39.067 22.2211 39.3749 21.206 39.3749 20.1677Z" fill="#67EFEB"/>
<path d="M39.375 34.9985C39.3759 34.3089 39.2404 33.6259 38.9765 32.9888C38.7127 32.3517 38.3255 31.773 37.8372 31.286L21 14.4487L4.16274 31.286C3.66568 31.7831 3.27351 32.375 3.00949 33.0266C2.74547 33.6781 2.61497 34.376 2.62574 35.079C2.6365 35.7819 2.78831 36.4755 3.07215 37.1187C3.356 37.7618 3.7661 38.3414 4.27815 38.8231C5.31635 39.7501 6.67267 40.24 8.06361 40.1903C9.45456 40.1406 10.7725 39.5552 11.7418 38.5564L20.9999 29.298L30.2767 38.575C31.2188 39.5438 32.491 40.1225 33.8403 40.1958C35.1897 40.2691 36.5172 39.8317 37.5587 38.9707C38.1293 38.4783 38.587 37.8685 38.9005 37.1829C39.214 36.4974 39.3758 35.7523 39.375 34.9985Z" fill="#67EFEB"/>
<path d="M16.3644 2.39971L3.23907 15.5247C2.3761 16.3845 1.77 17.468 1.48885 18.6533C1.2077 19.8386 1.26266 21.0788 1.64753 22.2346C2.03241 23.3905 2.73196 24.416 3.66758 25.1962C4.60321 25.9763 5.73785 26.4801 6.94402 26.6509L3.23907 30.3557C2.62157 30.9792 2.13473 31.7196 1.80706 32.5336C1.4794 33.3476 1.3175 34.2189 1.33087 35.0963C1.34424 35.9737 1.53261 36.8396 1.88492 37.6432C2.23724 38.4469 2.74642 39.1721 3.38263 39.7765C4.67124 40.9334 6.35655 41.5486 8.08747 41.4938C9.81839 41.439 11.4614 40.7185 12.6743 39.4823L21.0046 31.1517L29.3532 39.5009C30.5294 40.7059 32.117 41.4226 33.7987 41.5077C35.4804 41.5928 37.1323 41.04 38.4241 39.9598C39.1011 39.3666 39.6497 38.6413 40.0361 37.8283C40.4224 37.0153 40.6385 36.1319 40.6708 35.2324C40.7032 34.3329 40.5513 33.4362 40.2244 32.5976C39.8974 31.7589 39.4025 30.996 38.7698 30.3557L35.065 26.651C36.4677 26.4547 37.7683 25.8069 38.7701 24.8058C39.9933 23.571 40.6795 21.9032 40.6794 20.1652C40.6793 18.4271 39.9931 16.7594 38.7698 15.5247L25.6448 2.39971C24.4133 1.1707 22.7445 0.480469 21.0046 0.480469C19.2647 0.480469 17.5959 1.1707 16.3644 2.39971ZM36.9135 32.2117C37.2935 32.5962 37.5906 33.0544 37.7868 33.5581C37.983 34.0618 38.074 34.6004 38.0542 35.1406C38.0344 35.6808 37.9043 36.2112 37.6718 36.6992C37.4393 37.1872 37.1094 37.6225 36.7024 37.9782C35.9129 38.6242 34.9088 38.9488 33.8905 38.887C32.8723 38.8252 31.9148 38.3817 31.2092 37.645L21.9326 28.3677C21.6855 28.1234 21.3521 27.9864 21.0046 27.9864C20.6571 27.9864 20.3237 28.1234 20.0766 28.3677L10.818 37.6264C10.09 38.3838 9.09795 38.8313 8.04834 38.8758C6.99872 38.9204 5.97236 38.5584 5.18282 37.8654C4.80081 37.5029 4.49502 37.0677 4.2834 36.5854C4.07177 36.1032 3.95856 35.5835 3.95042 35.0569C3.94227 34.5303 4.03934 34.0074 4.23595 33.5188C4.43255 33.0302 4.72473 32.5858 5.09535 32.2116L21.0046 16.3207L36.9135 32.2117ZM23.7889 4.25567L36.9135 17.3807C37.6451 18.1097 38.0604 19.0973 38.0698 20.1301C38.0792 21.1629 37.6819 22.1579 36.9637 22.9001C36.2456 23.6423 35.2642 24.0722 34.2317 24.0968C33.1992 24.1215 32.1984 23.7389 31.4457 23.0317L21.9326 13.5188C21.8107 13.3969 21.6661 13.3002 21.5068 13.2342C21.3476 13.1682 21.177 13.1343 21.0046 13.1343C20.8322 13.1343 20.6616 13.1682 20.5024 13.2342C20.3431 13.3002 20.1985 13.3969 20.0766 13.5188L10.5625 23.0325C9.80958 23.7391 8.80892 24.1212 7.77665 24.0962C6.74438 24.0713 5.76336 23.6413 5.04545 22.8991C4.32754 22.157 3.93036 21.1622 3.9397 20.1297C3.94903 19.0972 4.36413 18.1097 5.09535 17.3807L18.2203 4.25567C18.9594 3.51849 19.9607 3.10451 21.0046 3.10451C22.0485 3.10451 23.0498 3.51849 23.7889 4.25567Z" fill="#2B838B"/>
</svg>
